<svg height="32px" viewBox="0 0 32 32" width="32px" xmlns="http://www.w3.org/2000/svg" xmlns:sketch="http://www.bohemiancoding.com/sketch/ns" xmlns:xlink="http://www.w3.org/1999/xlink"><g fill="none" fill-rule="evenodd" id="Page-1" stroke="none" stroke-width="1"><g fill="#fff" id="icon-42-one-finger-click"><path d="M16.5,23 L14,23 Z M16,3 L16,8 L17,8 L17,3 L16,3 L16,3 Z M24.9795845,6.30525211 L21.4440506,9.84078602 L22.1511573,10.5478928 L25.6866913,7.01235889 L24.9795845,6.30525211 L24.9795845,6.30525211 Z M28.9919434,14.9919434 L23.9919434,14.9919434 L23.9919434,15.9919434 L28.9919434,15.9919434 L28.9919434,14.9919434 L28.9919434,14.9919434 Z M4.00805664,15.9919434 L9.00805664,15.9919434 L9.00805664,14.9919434 L4.00805664,14.9919434 L4.00805664,15.9919434 L4.00805664,15.9919434 Z M7.31330875,7.01235889 L10.8488427,10.5478928 L11.5559494,9.84078602 L8.02041553,6.30525211 L7.31330875,7.01235889 L7.31330875,7.01235889 Z" id="one-finger-click"/></g></g></svg>